# xmcd CD database file
#
# Track frame offsets:
#	150
#	15060
#	28008
#	46558
#	61470
#	75678
#	85922
#	99332
#	116849
#	134979
#	153329
#	164479
#
# Disc length: 2366 seconds
#
# Revision: 0
# Processed by: cddbd v1.5.1PL2 Copyright (c) Steve Scherf et al.
# Submitted via: CDex 1.51
#
DISCID=8f093c0c
DTITLE=Craig Bryne - Playing Favourites
DYEAR=2001
DGENRE=Country
TTITLE0=Sea Of A Heartbreak
TTITLE1=Heartaches By The Numbers
TTITLE2=I'm Gonna Hire A Wino To
TTITLE3=Wayward Wind
TTITLE4=You're My Best Friend
TTITLE5=Walk On By
TTITLE6=One Lesss Set Of Footsteps
TTITLE7=Swinging Doors
TTITLE8=I Don't Remember Loving You
TTITLE9=Old Flames Can't Hold A Candle To You
TTITLE10=I Love You More
TTITLE11=Oh Lonesome Me
EXTD=YEAR: 2001
EXTT0=
EXTT1=
EXTT2=
EXTT3=
EXTT4=
EXTT5=
EXTT6=
EXTT7=
EXTT8=
EXTT9=
EXTT10=
EXTT11=
PLAYORDER=
